HIERARCHY
ROOT Hips
{
	OFFSET 0.000000 0.000000 0.000000 
	CHANNELS 6 Xposition Yposition Zposition Zrotation Yrotation Xrotation
	JOINT LeftUpLeg
	{
		OFFSET 1.363060 -1.794630 0.839290 
		CHANNELS 3 Zrotation Yrotation Xrotation
		JOINT LeftLeg
		{
			OFFSET 2.448110 -6.726130 0.000000 
			CHANNELS 3 Zrotation Yrotation Xrotation
			JOINT LeftFoot
			{
				OFFSET 2.562200 -7.039590 0.000000 
				CHANNELS 3 Zrotation Yrotation Xrotation
				JOINT LeftToeBase
				{
					OFFSET 0.157640 -0.433110 2.322550 
					CHANNELS 3 Zrotation Yrotation Xrotation
					End Site
					{
						OFFSET 0.000000 0.000000 0.000000 
					}
				}
			}
		}
	}
	JOINT RightUpLeg
	{
		OFFSET -1.305520 -1.794630 0.839290 
		CHANNELS 3 Zrotation Yrotation Xrotation
		JOINT RightLeg
		{
			OFFSET -2.542530 -6.985550 0.000000 
			CHANNELS 3 Zrotation Yrotation Xrotation
			JOINT RightFoot
			{
				OFFSET -2.568260 -7.056230 0.000000 
				CHANNELS 3 Zrotation Yrotation Xrotation
				JOINT RightToeBase
				{
					OFFSET -0.164730 -0.452590 2.363150 
					CHANNELS 3 Zrotation Yrotation Xrotation
					End Site
					{
						OFFSET 0.000000 0.000000 0.000000 
					}
				}
			}
		}
	}
	JOINT Spine
	{
		OFFSET 0.028270 2.035590 -0.193380 
		CHANNELS 3 Zrotation Yrotation Xrotation
		JOINT Spine1
		{
			OFFSET 0.056720 2.048850 -0.042750 
			CHANNELS 3 Zrotation Yrotation Xrotation
			JOINT Neck1
			{
				OFFSET -0.054170 1.746240 0.172020 
				CHANNELS 3 Zrotation Yrotation Xrotation
				JOINT Head
				{
					OFFSET 0.104070 1.761360 -0.123970 
					CHANNELS 3 Zrotation Yrotation Xrotation
					End Site
					{
						OFFSET 0.000000 0.000000 0.000000 
					}
				}
			}
			JOINT LeftArm
			{
				OFFSET 3.362410 1.200890 -0.311210 
				CHANNELS 3 Zrotation Yrotation Xrotation
				JOINT LeftForeArm
				{
					OFFSET 4.983000 -0.000000 -0.000000 
					CHANNELS 3 Zrotation Yrotation Xrotation
					JOINT LeftHand
					{
						OFFSET 3.483560 -0.000000 -0.000000 
						CHANNELS 3 Zrotation Yrotation Xrotation
						JOINT LeftHandIndex1
						{
							OFFSET 0.715260 -0.000000 -0.000000 
							CHANNELS 3 Zrotation Yrotation Xrotation
							End Site
							{
								OFFSET 0.000000 0.000000 0.000000 
							}
						}
					}
				}
			}
			JOINT RightArm
			{
				OFFSET -3.136600 1.374050 -0.404650 
				CHANNELS 3 Zrotation Yrotation Xrotation
				JOINT RightForeArm
				{
					OFFSET -5.241900 -0.000000 -0.000000 
					CHANNELS 3 Zrotation Yrotation Xrotation
					JOINT RightHand
					{
						OFFSET -3.444170 -0.000000 -0.000000 
						CHANNELS 3 Zrotation Yrotation Xrotation
						JOINT RightHandIndex1
						{
							OFFSET -0.622530 -0.000000 -0.000000 
							CHANNELS 3 Zrotation Yrotation Xrotation
							End Site
							{
								OFFSET 0.000000 0.000000 0.000000 
							}
						}
					}
				}
			}
		}
	}
}
MOTION
Frames: 7
Frame Time: 0.041667
7.399843 18.165111 7.804361 171.237048 -85.675275 -163.077250 -17.541883 -7.688876 -18.806619 0.164210 6.202207 22.413931 -4.427568 23.392238 -27.127944 0.627600 5.069200 14.106100 10.619516 37.596821 -20.790571 -3.813372 -8.866920 33.495170 -1.079297 3.652324 2.039180 -0.499100 4.529000 -12.569800 -9.842883 -2.264463 15.055465 7.684106 -0.370737 -9.691276 14.805445 -12.512962 26.210759 4.365300 -5.330700 8.806900 -80.621288 -6.021219 12.538553 10.192940 -15.116162 -1.351675 -0.745936 -1.399896 -1.938060 -7.125000 0.000000 0.000000 74.313151 -2.804179 10.981523 -24.843976 32.096505 -9.241912 0.538139 0.876768 17.723382 7.125000 0.000000 0.000000 
7.388117 18.165692 7.793313 170.939126 -85.667881 -162.794326 -17.499891 -7.776346 -18.702709 0.154320 6.181002 22.348832 -4.473346 23.505939 -27.099303 0.605600 4.981400 13.855400 10.401151 37.683490 -20.831709 -3.756287 -8.771809 33.114200 -0.723355 2.105116 1.218235 -0.523000 4.634900 -12.870200 -9.897625 -2.395093 15.040799 7.625749 -0.444462 -9.727690 14.906325 -12.534917 26.114141 4.391200 -5.334400 8.790300 -80.562191 -6.263290 12.504429 10.080998 -14.943387 -1.319710 -0.753025 -1.399990 -1.822508 -7.125000 0.000000 0.000000 74.224715 -2.877604 10.254641 -25.091735 32.377772 -9.393399 0.534073 0.921926 17.420396 7.125000 0.000000 0.000000 
7.369897 18.168600 7.788080 170.967723 -85.698002 -162.871191 -17.461323 -7.784063 -18.528967 0.131841 6.126720 22.186850 -4.579227 23.729997 -26.963096 0.564400 4.811500 13.371800 10.257013 37.696497 -20.809746 -3.701118 -8.681216 32.737232 -0.278533 0.285054 0.345873 -0.475800 4.423700 -12.271900 -9.819208 -2.544995 15.198866 7.505525 -0.545210 -9.665493 15.002487 -12.514448 25.801751 4.420100 -5.321000 8.715500 -80.611669 -6.604166 12.211588 9.977342 -14.783072 -1.290449 -0.776036 -1.392885 -1.558140 -7.125000 0.000000 0.000000 73.966619 -2.892942 9.719381 -25.369579 32.676039 -9.548475 0.539672 1.002925 16.871248 7.125000 0.000000 0.000000 
7.356232 18.174511 7.784009 169.794309 -85.655726 -161.767510 -17.573492 -7.563453 -18.401500 0.110035 6.067090 22.014249 -4.661988 23.858060 -26.751755 0.524100 4.639500 12.883200 10.017073 37.523617 -20.877852 -3.646993 -8.610896 32.386905 0.201112 -1.570389 -0.399487 -0.381600 3.967000 -10.983900 -9.700135 -2.622727 15.266161 7.432980 -0.587280 -9.747933 15.194180 -12.592326 25.681851 4.481400 -5.349200 8.716800 -80.790477 -6.883999 11.934184 9.911642 -14.680693 -1.271659 -0.780031 -1.384851 -1.089146 -7.125000 0.000000 0.000000 73.593797 -2.972092 9.047096 -25.554281 32.899293 -9.648607 0.550064 1.045579 16.749566 7.125000 0.000000 0.000000 
7.344118 18.182749 7.778679 169.287623 -85.518521 -161.289982 -17.647031 -7.328103 -18.308876 0.070905 5.998430 21.803339 -4.642410 23.801208 -26.764027 0.538400 4.701200 13.058400 9.820630 37.267634 -21.042573 -3.592395 -8.544545 32.052758 0.643718 -3.220806 -1.049260 -0.294300 3.488500 -9.641700 -9.856298 -2.627446 15.231330 7.353812 -0.602774 -9.834614 15.159491 -12.650802 25.400747 4.445100 -5.382200 8.626500 -80.756298 -7.164373 12.143229 9.779752 -14.472348 -1.235134 -0.789949 -1.380893 -0.975229 -7.125000 0.000000 0.000000 73.451287 -3.035115 8.133003 -25.627340 33.002166 -9.677025 0.566424 1.035793 16.986490 7.125000 0.000000 0.000000 
7.328709 18.189145 7.770247 168.544576 -85.349522 -160.491934 -17.775997 -6.903387 -18.354567 0.034595 5.918281 21.546485 -4.729160 23.900274 -26.482156 0.516200 4.604900 12.785000 9.575928 37.002657 -21.353093 -3.541372 -8.487459 31.741294 1.086690 -4.830805 -1.731594 -0.217700 3.003800 -8.289300 -9.940254 -2.636932 15.223699 7.315084 -0.623530 -9.791131 15.077991 -12.658427 25.087367 4.410600 -5.397900 8.525700 -80.736332 -7.442430 12.464856 9.691707 -14.325393 -1.211862 -0.787276 -1.380447 -1.005172 -7.125000 0.000000 0.000000 73.243725 -3.013811 7.214245 -25.728082 33.124721 -9.719375 0.576169 1.041336 17.017975 7.125000 0.000000 0.000000 
7.311167 18.196123 7.758424 168.545121 -85.186344 -160.503917 -17.831701 -6.530244 -18.287234 0.001858 5.839838 21.296131 -4.850325 24.083664 -26.177458 0.474500 4.417800 12.255200 9.484617 36.672158 -21.565292 -3.486919 -8.428732 31.409557 1.599653 -6.647746 -2.418088 -0.131000 2.333000 -6.426900 -9.673436 -2.689344 15.209875 7.330834 -0.630446 -9.852896 15.104040 -12.707548 25.098871 4.423500 -5.423000 8.543900 -80.874643 -7.587893 12.607470 9.678180 -14.297822 -1.207837 -0.786259 -1.382421 -1.165350 -7.125000 0.000000 0.000000 72.830662 -2.986675 6.286448 -25.804868 33.225017 -9.721957 0.613781 1.067377 16.860291 7.125000 0.000000 0.000000 
